HIERARCHY
ROOT Hips
{
  OFFSET 0 0 0
  CHANNELS 6 Xposition Yposition Zposition Zrotation Yrotation Xrotation
  JOINT LeftThigh
  {
    OFFSET 8.409438 0 -5.917753
    CHANNELS 3 Zrotation Yrotation Xrotation
    JOINT LeftLeg
    {
      OFFSET 0 0 -42.358652
      CHANNELS 3 Zrotation Yrotation Xrotation
      JOINT LeftFoot
      {
        OFFSET 0 0 -39.357303
        CHANNELS 3 Zrotation Yrotation Xrotation
      }
    }
  }
  JOINT RightThigh
  {
    OFFSET -8.409438 0 -5.917753
    CHANNELS 3 Zrotation Yrotation Xrotation
    JOINT RightLeg
    {
      OFFSET 0 0 -42.358652
      CHANNELS 3 Zrotation Yrotation Xrotation
      JOINT RightFoot
      {
        OFFSET 0 0 -39.357303
        CHANNELS 3 Zrotation Yrotation Xrotation
      }
    }
  }
  JOINT SpineLow
  {
    OFFSET 0 0 4.719101
    CHANNELS 3 Zrotation Yrotation Xrotation
    JOINT SpineMid
    {
      OFFSET 0 0 12.899191
      CHANNELS 3 Zrotation Yrotation Xrotation
      JOINT Chest
      {
        OFFSET 0 0 12.899191
        CHANNELS 3 Zrotation Yrotation Xrotation
        JOINT LeftShoulder
        {
          OFFSET 7.550562 1.41573 9.438202
          CHANNELS 3 Zrotation Yrotation Xrotation
          JOINT LeftArm
          {
            OFFSET 9.155056 0 4.247191
            CHANNELS 3 Zrotation Yrotation Xrotation
            JOINT LeftForearm
            {
              OFFSET 0 0 25.771955
              CHANNELS 3 Zrotation Yrotation Xrotation
              JOINT LeftHand
              {
                OFFSET 0 0 25.197169
                CHANNELS 3 Zrotation Yrotation Xrotation
              }
            }
          }
        }
        JOINT RightShoulder
        {
          OFFSET -7.550562 1.41573 9.438202
          CHANNELS 3 Zrotation Yrotation Xrotation
          JOINT RightArm
          {
            OFFSET -9.155056 0 4.247191
            CHANNELS 3 Zrotation Yrotation Xrotation
            JOINT RightForearm
            {
              OFFSET 0 0 -25.771955
              CHANNELS 3 Zrotation Yrotation Xrotation
              JOINT RightHand
              {
                OFFSET 0 0 -25.197169
                CHANNELS 3 Zrotation Yrotation Xrotation
              }
            }
          }
        }
        JOINT Neck
        {
          OFFSET 0 0 15.101124
          CHANNELS 3 Zrotation Yrotation Xrotation
          JOINT Head
          {
            OFFSET 0 0 11.325843
            CHANNELS 3 Zrotation Yrotation Xrotation
            End Site
            {
              OFFSET 0 0 14.157303
            }
          }
        }
      }
    }
  }
}
MOTION
Frames: 16
Frame Time: 0.0
0.0  89.887642  0.0  10.008851  -62.325791  -112.283419  45.76998  -41.814088  -28.142715  25.395355  33.18092  76.335802  -0.5864  0.516675  -0.410127  -6.184072  19.076667  -22.698886  10.295691  10.685913  53.9065  11.163263  3.255752  -2.298252  0.341485  1.325609  1.175781  0.998564  3.605733  3.235498  0.998564  3.605733  3.235498  -2.145542  17.472496  12.852982  -91.712072  43.943315  -90.186752  -36.899693  23.924588  80.18561  76.507838  4.739859  1.739237  6.122341  0.31104  17.626664  124.925174  47.603092  37.052261  -2.30829  -0.619577  -80.436045  73.286707  -9.459797  18.931293  14.603218  -2.448399  9.648786  10.992655  -1.607238  7.298973  
0.0  89.887642  0.0  10.136841  -62.355622  -112.735695  46.839226  -42.194247  -28.359103  24.96914  33.637857  76.277001  -0.384207  0.576584  -0.345343  -6.790606  19.279648  -22.888026  10.228753  10.40245  54.215249  11.334813  3.332925  -2.23865  0.352478  1.27053  1.203604  1.027319  3.454235  3.311162  1.027319  3.454235  3.311162  -1.923116  17.756706  13.179231  -92.388669  43.775577  -90.189211  -37.198141  23.813756  79.925063  76.416284  4.770159  1.752202  6.402983  0.613569  17.915581  124.901936  47.368543  37.173503  -2.491379  -0.586227  -80.311595  73.386748  -9.213858  18.873859  14.667746  -2.259795  9.778821  11.038896  -1.461514  7.392483  
0.0  89.887642  0.0  9.982054  -62.177631  -112.800684  47.516731  -42.620797  -28.589223  24.746837  34.243948  76.208893  -0.223073  0.55889  -0.276654  -7.718383  19.34252  -23.237995  10.454467  9.95374  54.542338  11.187001  3.358231  -2.093003  0.309009  1.227407  1.250293  0.908584  3.337911  3.435874  0.908584  3.337911  3.435874  -1.707312  17.897569  13.19483  -92.965928  43.653217  -90.251013  -37.352074  23.674202  79.870867  76.32055  4.80118  1.856334  6.796655  0.825526  17.951625  124.863978  47.203394  37.215988  -2.495584  -0.743855  -80.078964  73.672263  -8.940927  18.861646  14.758002  -2.098974  9.802936  11.104324  -1.338757  7.407217  
0.0  89.887642  0.0  9.956957  -62.073778  -112.93934  48.030187  -42.999259  -28.784063  24.561392  34.951374  76.054053  0.058342  0.582995  -0.125007  -8.654372  19.357652  -23.554104  10.812221  9.693187  54.727101  11.243147  3.359261  -1.929804  0.239677  1.206554  1.318486  0.721266  3.283753  3.618619  0.721266  3.283752  3.61862  -1.329649  17.935416  12.941276  -93.588059  43.761377  -89.807709  -37.731475  23.057259  79.517554  76.237513  4.807315  1.905786  7.39656  0.892763  17.812659  124.741115  47.051657  37.181891  -3.171817  -1.272216  -79.613119  74.677616  -8.728477  18.078079  15.000516  -1.935484  9.699183  11.283407  -1.214685  7.326462  
0.0  89.887642  0.0  9.752941  -61.898575  -112.902308  48.535387  -43.392812  -29.087655  24.433221  35.492859  76.071157  0.26982  0.623874  0.026353  -9.461982  19.384954  -23.782078  10.909819  9.736461  54.866774  11.281412  3.271012  -1.831225  0.204486  1.186953  1.382229  0.62706  3.231477  3.790983  0.62706  3.231477  3.790983  -1.17425  17.911503  12.719594  -93.926684  43.795432  -89.620367  -37.7773  22.887077  79.569011  76.225158  4.785626  1.815051  7.724301  0.809539  17.68264  124.53618  46.857928  37.148751  -3.126772  -1.235648  -79.314223  74.941298  -8.503784  18.025285  15.06733  -1.825112  9.586602  11.331479  -1.133536  7.239585  
0.0  89.887642  0.0  9.549543  -61.737696  -112.830702  49.107175  -43.642391  -29.596979  24.188568  35.97755  76.167536  0.29503  0.628079  0.097585  -10.210202  19.471286  -23.939208  9.577885  9.978128  55.281876  12.064259  4.118646  -2.079698  0.069107  1.141418  1.424261  0.25624  3.114633  3.898995  0.25624  3.114633  3.898995  -0.424719  18.139109  12.575845  -94.088085  43.81299  -89.325621  -37.820315  22.766453  79.601554  76.300691  4.76979  1.611312  8.540247  0.803214  17.720866  124.306681  46.597516  37.130921  -3.166892  -0.906562  -79.00755  75.183209  -8.355998  18.108461  15.517656  -1.574196  9.51358  11.665371  -0.939967  7.18022  
0.0  89.887642  0.0  9.197589  -61.516573  -112.607368  49.774566  -43.778736  -30.248696  23.87808  36.275088  76.365946  0.368892  0.67056  0.225279  -10.837764  19.571639  -24.053714  9.51521  9.933347  55.341805  12.142339  4.068112  -2.007783  0.042658  1.106309  1.462233  0.183581  3.02013  4.001386  0.183581  3.02013  4.001386  -0.423416  18.242128  12.545838  -94.071179  43.801904  -88.953757  -37.82342  22.770532  79.675567  76.384932  4.804337  1.337897  8.905185  0.668988  17.820407  123.652094  46.441846  37.031761  -3.504155  -0.349732  -78.890063  75.317232  -8.393388  18.405008  15.546384  -1.45302  9.380645  11.684734  -0.851922  7.077521  
0.0  89.887642  0.0  8.770682  -61.229552  -112.224456  50.365317  -43.715646  -31.081809  23.336372  36.65825  76.414029  0.4122  0.71336  0.375723  -11.473801  19.605288  -24.190877  7.930235  10.153572  55.655178  13.030349  4.954594  -2.165248  -0.004255  1.049549  1.464225  0.051963  2.867884  4.004443  0.051963  2.867884  4.004443  -0.344536  18.452566  12.707361  -94.005056  43.736235  -88.639951  -37.831926  22.884948  79.758988  76.412921  4.894167  1.109124  9.374077  0.661289  18.155334  122.525088  46.39493  36.650497  -4.107823  0.902602  -79.010274  75.06033  -8.772577  18.714731  15.599931  -1.284751  9.293333  11.722213  -0.726994  7.007937  
0.0  89.887642  0.0  8.390472  -60.886262  -111.894581  50.939729  -43.493771  -31.882705  22.759616  36.844468  76.587142  0.491988  0.805884  0.531362  -11.879293  19.626254  -24.267017  7.915399  10.100613  55.754111  12.973451  4.932128  -2.090427  -0.031368  0.980308  1.441937  -0.027261  2.680348  3.942111  -0.027261  2.680348  3.942111  -0.325501  18.734707  13.100079  -94.003495  43.636728  -88.436465  -37.834952  23.177455  79.926948  76.44681  5.099912  0.931189  9.832557  0.72677  18.772301  121.209721  46.522198  36.263493  -4.946483  2.074466  -79.315536  74.809125  -9.26606  19.315345  15.537292  -1.098282  9.292445  11.672518  -0.587966  7.002428  
0.0  89.887642  0.0  7.992828  -60.291298  -111.491509  51.135072  -43.04717  -32.700892  21.96408  37.13366  76.606374  0.719963  0.983216  0.764145  -14.636837  19.240708  -24.553733  8.884282  9.874408  55.48823  13.659565  5.758143  -2.279751  -0.078924  0.8973  1.385649  -0.164301  2.456275  3.786206  -0.164301  2.456275  3.786206  -0.264504  19.092474  13.689904  -94.177079  43.499861  -88.398667  -37.781764  23.639924  80.213707  76.510863  5.447042  0.800398  10.304499  0.866363  19.643727  119.487721  46.763921  35.638177  -5.776499  2.98074  -79.823799  74.690682  -9.857032  20.264499  15.348504  -0.891309  9.388186  11.528073  -0.433035  7.068686  
0.0  89.887642  0.0  7.52193  -59.586396  -110.913095  51.227665  -42.454593  -33.58879  21.30062  37.229445  76.794459  0.77478  1.082311  0.935979  -15.01056  19.247573  -24.659832  8.914559  9.89222  55.557554  13.559113  5.696112  -2.187809  -0.133295  0.775431  1.27511  -0.323449  2.125909  3.482204  -0.323449  2.125909  3.482204  -0.129638  19.624485  14.514922  -94.49397  43.382838  -88.446246  -37.680926  24.214153  80.653041  76.590833  5.961917  0.609498  10.803209  1.135073  20.793981  117.381574  47.034387  34.735421  -6.552665  3.605527  -80.550785  74.561154  -10.43254  21.497933  15.138451  -0.596282  9.7044  11.366617  -0.206922  7.298332  
0.0  89.887642  0.0  7.007412  -58.909434  -110.330313  51.171471  -41.888951  -34.436927  20.833485  37.161652  77.127396  0.755782  1.152384  1.059702  -16.702787  18.949192  -24.533277  9.362993  9.783619  55.175123  13.988594  6.294357  -2.3243  -0.194772  0.585926  1.098793  -0.505736  1.610029  2.999245  -0.505736  1.610029  2.999245  0.306803  20.51323  15.811163  -94.875473  43.286178  -88.388349  -37.539439  24.842859  81.220448  76.750252  6.611493  0.197173  11.483213  1.701384  22.40048  114.899474  47.294941  33.37582  -7.214391  3.884956  -81.435015  74.416212  -10.948916  23.194399  14.873853  -0.188752  10.343609  11.162388  0.110417  7.767769  
0.0  89.887642  0.0  6.418151  -58.054787  -109.648921  50.833051  -41.306884  -35.245456  20.430846  37.097579  77.425006  0.726384  1.202002  1.185954  -16.889534  18.986031  -24.238666  9.183459  9.870794  54.853948  13.864919  6.275047  -2.210468  -0.299021  0.361985  0.883583  -0.80405  1.000205  2.410836  -0.80405  1.000205  2.410837  0.962887  21.61815  17.326411  -95.065071  43.204727  -87.991941  -37.372211  25.531681  81.851003  77.042297  7.384388  -0.510107  12.435322  2.421039  24.133419  112.017384  47.578786  31.568354  -7.734403  3.72009  -82.53662  74.213568  -11.415159  25.489889  14.746989  0.363127  11.218923  11.057993  0.54379  8.411236  
0.0  89.887642  0.0  5.772123  -57.019124  -108.910225  50.256516  -40.767856  -35.98916  20.262519  36.939442  77.823157  0.700554  1.213661  1.294973  -17.197401  19.072061  -23.877224  8.915225  10.037959  54.446285  13.722742  6.214436  -2.097461  -0.464136  0.121539  0.620887  -1.265463  0.34409  1.694742  -1.265463  0.34409  1.694743  2.077915  22.769497  19.10171  -95.038056  43.21923  -87.245528  -37.129331  26.361035  82.58652  77.488226  8.365196  -1.597562  13.779477  3.273709  26.087656  108.815251  48.044934  29.251453  -8.131148  3.048603  -84.01292  74.072093  -12.015648  28.386428  14.714173  0.967502  12.26746  11.021262  1.022322  9.183434  
0.0  89.887642  0.0  5.027502  -55.875621  -108.139788  49.564243  -40.320732  -36.662595  20.040652  36.882402  78.047074  0.659998  1.240349  1.374664  -17.450385  19.182467  -23.35848  8.533248  10.269093  53.973111  13.550917  6.158205  -2.006457  -0.55629  -0.052001  0.460576  -1.521492  -0.131533  1.26006  -1.521492  -0.131533  1.26006  2.557758  23.291531  20.102751  -94.803854  43.437672  -86.145868  -36.784441  27.35304  83.417943  78.038713  9.509145  -3.058635  14.706094  3.872805  27.145791  105.132264  48.742065  26.195231  -8.242126  1.814266  -85.885358  74.146537  -13.055468  31.893007  14.356816  1.419432  12.884206  10.742851  1.369001  9.635665  
0.0  89.887642  0.0  4.211324  -54.566659  -107.322214  48.770775  -39.876458  -37.287068  20.603353  35.929685  78.962649  -0.257758  0.877112  1.143665  -17.83796  19.274704  -22.698448  8.042724  10.456784  53.468817  13.249173  6.110706  -1.994386  -0.558778  -0.099289  0.547341  -1.529527  -0.25872  1.498311  -1.529528  -0.25872  1.498311  1.764485  22.853181  19.275928  -94.305475  43.763966  -84.647795  -36.256946  28.490985  84.439911  78.731962  10.987422  -4.918236  14.861207  4.088708  26.402994  100.993135  49.877894  22.413048  -7.902066  0.317052  -88.217923  74.39147  -14.775399  35.780451  13.507068  1.651996  12.43624  10.100982  1.515579  9.29544  
